<?xml version="1.0" encoding="utf-8"?>
<!-- Generator: Adobe Illustrator 27.1.1, SVG Export Plug-In . SVG Version: 6.00 Build 0)  -->
<svg version="1.1" id="Layer_1" xmlns="http://www.w3.org/2000/svg" xmlns:xlink="http://www.w3.org/1999/xlink" x="0px" y="0px"
	 viewBox="0 0 300 22" style="enable-background:new 0 0 300 22;" xml:space="preserve">
<style type="text/css">
	.st0{fill:#FFFFFF;}
</style>
<path class="st0" d="M-27.8,20.4h-1.9v4.6h8.4v-4.7h-1.8V1.9h1.8v-4.8h-8.4v4.8h1.8v6.8h-5.4V1.9h1.8v-4.8H-40v4.8h1.8v18.5H-40v4.6
	h8.4v-4.7h-1.8v-6.8h5.6V20.4z M-16.9,1.9h-1.8v-4.8h8.4v4.8h-1.8v18.5h1.8v4.6h-8.4v-4.7h1.8V1.9z M-4.4-2.9L-8,0.6v20.6l3.5,3.5
	h8.7l3.5-3.5V8.7H0.5v4.7h2.8v6.8h-6.6V1.9h6.6v3.5H8V0.6L4.5-2.9H-4.4z M22.7,20.4h-1.8v4.6h8.4v-4.7h-1.8V1.9h1.8v-4.8h-8.4v4.8
	h1.8v6.8h-5.6V1.9h1.8v-4.8h-8.4v4.8h1.8v18.5h-1.8v4.6h8.4v-4.7h-1.8v-6.8h5.6V20.4z M40.7-2.9l-3.5,3.5v9.6l3.4,3.5H48v6.5h-6.3
	v-3.7H37v4.8l3.5,3.5H49l3.5-3.5v-8.6l-3.7-3.5h-7.2V1.9H48v5.3h4.7V0.6L49-2.9H40.7z M58.9-2.9l-3.5,3.5v20.6l3.5,3.5H68l3.5-3.5
	v-4.8h-4.7v3.7h-7V1.9h7v3.5h4.7V0.6L68-2.9H58.9z M86.4,20.4h-1.8v4.6H93v-4.7h-1.8V1.9H93v-4.8h-8.4v4.8h1.8v6.8h-5.6V1.9h1.8
	v-4.8h-8.4v4.8H76v18.5h-1.8v4.6h8.4v-4.7h-1.8v-6.8h5.6V20.4z M106.7,20.2h-6.6V1.9h6.6V20.2z M99-2.9l-3.5,3.5v20.6l3.5,3.5h8.7
	l3.5-3.5V0.7l-3.5-3.5L99-2.9L99-2.9z M125.3,20.2h-6.7V1.9h6.7V20.2z M117.6-2.9L114,0.6v20.6l3.5,3.5h8.7l3.5-3.5V0.7l-3.5-3.5
	L117.6-2.9L117.6-2.9z M140.9,1.9v-4.8h-8.4v4.8h1.8v18.5h-1.8v4.6h15.8v-8.4h-4.7v3.7h-4.8V1.9H140.9z M176,24.9v-4.7h-1.8V1.9h1.8
	v-4.8h-8.2v4.8h1.8V12l-6.2-14.9h-7v4.8h1.8v18.5h-1.8v4.6h8.4v-4.7h-1.8V10.1l6.1,14.8H176z M185.1,20.2v-6.8h6.1V8.7h-6.1V1.9h4.8
	v3.5h4.7v-8.4h-15.8v4.8h1.8v18.5h-1.8v4.6h15.8v-8.4h-4.7v3.7H185.1L185.1,20.2z M208.9,24.9L214,1.8h1.6v-4.7h-6.8v4.7h0.6
	l-2.9,13.4l-2.9-13.4h0.6v-4.7h-6.8v4.7h1.8l5.4,23.2H208.9L208.9,24.9z M224.9,20.2v-6.8h6.1V8.7h-6.1V1.9h4.8v3.5h4.7v-8.4h-16
	v4.8h1.8v18.5h-1.8v4.6h15.8v-8.4h-4.7v3.7H224.9L224.9,20.2z M248.9,9.4h-5.7V1.9h5.7V9.4z M248.9,20.4h-1.8v4.6h8.4v-4.7h-1.8v-8
	l-1.3-1.1l1.3-1.3V0.7l-3.7-3.7h-13.3v4.8h1.8v18.5h-1.8v4.6h8.4v-4.7h-1.8v-6.5h5.7L248.9,20.4L248.9,20.4z M269.7,20.2v-6.8h6.1
	V8.7h-6.1V1.9h4.8v3.5h4.7v-8.4h-15.8v4.8h1.8v18.5h-1.8v4.6h15.8v-8.4h-4.7v3.7H269.7L269.7,20.2z M301.4,24.9v-4.7h-1.8V1.9h1.8
	v-4.8h-8.2v4.8h1.8V12l-6.2-14.9h-7v4.8h1.8v18.5h-1.8v4.6h8.4v-4.7h-1.8V10.1l6.1,14.8H301.4z M304.2-2.9v4.8h1.8v18.5h-1.8v4.6
	h14.2l3.5-3.5V0.7l-3.5-3.5L304.2-2.9L304.2-2.9z M317.1,20.2h-6.6V1.9h6.6V20.2z M328-2.9l-3.5,3.5v9.6l3.4,3.5h7.5v6.5H329v-3.7
	h-4.7v4.8l3.5,3.5h8.5l3.5-3.5v-8.6l-3.7-3.5H329V1.9h6.3v5.3h4.7V0.6l-3.5-3.5H328z"/>
</svg>
