<svg width="597" height="44" viewBox="0 0 597 44" fill="none" xmlns="http://www.w3.org/2000/svg">
<path d="M18.9766 36.6992H16.1328V44H29.1484V36.6992H26.332V7.60547H29.1484V0.304688H16.1328V7.60547H18.9766V18.4883H10.1719V7.60547H13.0156V0.304688H0V7.60547H2.70703V36.6992H0V44H13.0156V36.6992H10.1719V25.7891H18.9766V36.6992ZM36.0938 7.60547H33.25V0.304688H46.2656V7.60547H43.4219V36.6992H46.2656V44H33.25V36.6992H36.0938V7.60547ZM55.9727 0.277344L50.3672 5.91016V38.3945L55.9727 44H69.8359L75.4414 38.3945V18.4883H63.9297V25.7891H68.1406V36.6719H57.6953V7.60547H68.1406V13.3203H75.4414V5.91016L69.8359 0.277344H55.9727ZM98.5469 36.6992H95.7031V44H108.719V36.6992H105.902V7.60547H108.719V0.304688H95.7031V7.60547H98.5469V18.4883H89.7422V7.60547H92.5859V0.304688H79.5703V7.60547H82.2773V36.6992H79.5703V44H92.5859V36.6992H89.7422V25.7891H98.5469V36.6992ZM126.629 0.277344L121.023 5.91016V21.0312L126.492 26.6094H138.25V36.6719H128.352V30.957H121.023V38.3945L126.629 44H139.945L145.551 38.3945V24.9688L139.809 19.3086H128.352V7.60547H138.25V16.0547H145.551V5.91016L139.945 0.277344H126.629ZM155.285 0.304688L149.68 5.9375V38.3945L155.285 44H169.695L175.301 38.3945V30.957H168V36.6719H157.008V7.63281H168V13.3477H175.301V5.9375L169.695 0.304688H155.285ZM198.406 36.6992H195.562V44H208.578V36.6992H205.762V7.60547H208.578V0.304688H195.562V7.60547H198.406V18.4883H189.602V7.60547H192.445V0.304688H179.43V7.60547H182.137V36.6992H179.43V44H192.445V36.6992H189.602V25.7891H198.406V36.6992ZM230.453 36.6719H220.008V7.63281H230.453V36.6719ZM218.285 0.304688L212.68 5.9375V38.3945L218.285 44H232.148L237.754 38.3945V5.9375L232.148 0.304688H218.285ZM259.656 36.6719H249.211V7.63281H259.656V36.6719ZM247.488 0.304688L241.883 5.9375V38.3945L247.488 44H261.352L266.957 38.3945V5.9375L261.352 0.304688H247.488ZM284.102 7.60547V0.304688H271.086V7.60547H273.793V36.6992H271.086V44H295.914V30.957H288.641V36.6719H281.258V7.60547H284.102ZM339.254 44V36.6992H336.41V7.60547H339.254V0.304688H326.238V7.60547H328.973V23.4375L319.293 0.277344L308.219 0.304688V7.60547H311.062V36.6992H308.219V44H321.234V36.6992H318.391V20.8398L328.07 44H339.254ZM353.555 36.6719V25.7891H363.098V18.4883H353.555V7.60547H360.938V13.3477H368.211V0.277344H343.383V7.60547H346.09V36.6992H343.383V44H368.211V30.957H360.938V36.6719H353.555ZM390.988 44L399.055 7.57812H401.652V0.277344H390.77V7.57812H391.754L387.051 28.6055L382.32 7.57812H383.195V0.277344H372.312V7.57812H375.047L383.551 44H390.988ZM415.953 36.6719V25.7891H425.496V18.4883H415.953V7.60547H423.336V13.3477H430.609V0.277344H405.781V7.60547H408.488V36.6992H405.781V44H430.609V30.957H423.336V36.6719H415.953ZM453.906 19.418H444.883V7.63281H453.906V19.418ZM453.906 36.6992H451.062V44H464.078V36.6992H461.234V24.1484L459.211 22.207L461.234 20.2109V5.9375L455.602 0.222656H434.711V7.60547H437.418V36.6992H434.711V44H447.727V36.6992H444.883V26.7188H453.906V36.6992ZM486.555 36.6719V25.7891H496.098V18.4883H486.555V7.60547H493.938V13.3477H501.211V0.277344H476.383V7.60547H479.09V36.6992H476.383V44H501.211V30.957H493.938V36.6719H486.555ZM536.348 44V36.6992H533.504V7.60547H536.348V0.304688H523.332V7.60547H526.066V23.4375L516.387 0.277344L505.312 0.304688V7.60547H508.156V36.6992H505.312V44H518.328V36.6992H515.484V20.8398L525.164 44H536.348ZM540.477 0.304688V7.60547H543.184V36.6992H540.477V44H562.652L568.258 38.3945V5.9375L562.652 0.304688H540.477ZM560.957 36.6719H550.512V7.63281H560.957V36.6719ZM577.965 0.277344L572.359 5.91016V21.0312L577.828 26.6094H589.586V36.6719H579.688V30.957H572.359V38.3945L577.965 44H591.281L596.887 38.3945V24.9688L591.145 19.3086H579.688V7.60547H589.586V16.0547H596.887V5.91016L591.281 0.277344H577.965Z" fill="#FF0000"/>
</svg>
